<svg viewBox="0 0 72 72" xmlns="http://www.w3.org/2000/svg"><g fill="none" stroke="#000" stroke-width="1.5"><path d="m48.485 26.717-2.36-3.983 4.1-2.293" stroke-linecap="round" stroke-linejoin="round"/><path d="m47.0718 22.888a14.7062 14.7062 0 0 1 10.822 11.3838" stroke-linecap="round" stroke-linejoin="round"/><path d="m23.094 45.255 2.359 3.983-4.099 2.292" stroke-linecap="round" stroke-linejoin="round"/><path d="m24.5071 49.0837a14.7063 14.7063 0 0 1 -10.8221-11.3837" stroke-linecap="round" stroke-linejoin="round"/><ellipse cx="33.2144" cy="20.727" rx="3.5258" ry="3.4257" stroke-miterlimit="10"/><g stroke-linecap="round"><path d="m27.9556 13.4112v17.0122a.5924.5924 0 0 1 -.5976.4064h-9.1432a.72.72 0 0 1 -.5976-.4064v-17.1864a.5925.5925 0 0 1 .5976-.4064h9.1432a.72.72 0 0 1 .5976.4064z" stroke-linejoin="round"/><path d="m22.876 24.443v-2.264l1.554-2.962-1.554 2.962-1.494-2.962" stroke-linejoin="round"/><path d="m21.4418 21.8302h2.9282" stroke-linejoin="round"/><path d="m14.9281 30.8879h-2.1514a.5568.5568 0 0 1 -.5976-.5806v-16.9542a.5568.5568 0 0 1 .5976-.5806h2.1514" stroke-linejoin="round"/><path d="m30.6448 12.8306 10.3981-.0581a.5567.5567 0 0 1 .5976.5806v16.9542a.5567.5567 0 0 1 -.5976.5806l-10.3981-.0579" stroke-linejoin="round"/><path d="m30.645 15.269h8.247v13.122h-8.247" stroke-linejoin="round"/><path d="m14.9281 28.5073v-13.2381" stroke-linejoin="round"/><path d="m52.4705 42.68h2.9282a2.4018 2.4018 0 0 0 2.45 2.2063h.239v10.393h-.239a2.4018 2.4018 0 0 0 -2.45 2.2063h-2.9282m-14.88-.0581h-2.8686a2.3865 2.3865 0 0 0 -2.39-2.2063h-.2391v-10.3931h.2391a2.3457 2.3457 0 0 0 2.39-2.2064h2.6294" stroke-linejoin="round"/><path d="m50.08 41.5766v17.1864a.5925.5925 0 0 1 -.5976.4064h-9.1431a.72.72 0 0 1 -.5976-.4064v-17.3606a.5925.5925 0 0 1 .5976-.4064h9.1432a.72.72 0 0 1 .5976.4064z" stroke-linejoin="round"/><path d="m37.59 59.1113h-6.6927a.5567.5567 0 0 1 -.5976-.5806v-16.9541a.5567.5567 0 0 1 .5976-.5806h6.454" stroke-linejoin="round"/><path d="m52.3509 40.996h6.8724a.5567.5567 0 0 1 .5976.5806v16.9541a.5567.5567 0 0 1 -.5976.5806h-6.8724" stroke-linejoin="round"/><path d="m51.7533 45.7571c1.7331 1.0451 2.8685 2.4966 2.8685 4.1224s-1.1354 3.0773-2.8685 4.1224" stroke-miterlimit="10"/><path d="m37.3513 53.4793a4.7206 4.7206 0 0 1 -2.1513-3.6579 4.9263 4.9263 0 0 1 2.45-3.89" stroke-miterlimit="10"/><path d="m46.3152 48.4279a1.3407 1.3407 0 0 0 -1.3744-.8709 1.2308 1.2308 0 0 0 -1.3745 1.103 1.2674 1.2674 0 0 0 1.3745 1.1032 1.2307 1.2307 0 0 1 1.3744 1.1031 1.3113 1.3113 0 0 1 -1.3744 1.1037 1.3406 1.3406 0 0 1 -1.3745-.8709" stroke-linejoin="round"/><path d="m44.881 47.557v-1.0451" stroke-linejoin="round"/><path d="m44.881 52.9568v-1.0451" stroke-linejoin="round"/></g></g></svg>