<svg fill="none" height="24" viewBox="0 0 24 24" width="24" xmlns="http://www.w3.org/2000/svg"><g fill="#0f0f0f"><path d="m13.3085.293087c.3905-.3907828 1.0237-.3907826 1.4142 0l2.9959 2.997863c.3905.3908.3905 1.02441-.0001 1.41518l-3.0025 3.00421c-.3905.39079-1.0237.39079-1.4142 0-.3905-.39078-.3905-1.02436 0-1.41514l1.3069-1.30777h-7.6087c-.55229 0-1-.44801-1-1.00066s.44771-1.00066 1-1.00066l7.5855-.00001-1.277-1.27786c-.3905-.39079-.3905-1.024371 0-1.415153z"/><path clip-rule="evenodd" d="m12 20.998c2.2091 0 4-1.792 4-4.0026s-1.7909-4.0027-4-4.0027c-2.20914 0-4 1.7921-4 4.0027s1.79086 4.0026 4 4.0026zm0-1.9046c-1.158 0-2.09669-.9393-2.09669-2.098 0-1.1588.93869-2.0981 2.09669-2.0981s2.0967.9393 2.0967 2.0981c0 1.1587-.9387 2.098-2.0967 2.098z" fill-rule="evenodd"/><path d="m7 16.9954c0 .5526-.44771 1.0006-1 1.0006-.55228 0-1-.448-1-1.0006 0-.5527.44772-1.0007 1-1.0007.55229 0 1 .448 1 1.0007z"/><path d="m19 16.9954c0 .5526-.4477 1.0006-1 1.0006s-1-.448-1-1.0006c0-.5527.4477-1.0007 1-1.0007s1 .448 1 1.0007z"/><path clip-rule="evenodd" d="m21 9.99074c1.6569 0 3 1.34406 3 3.00196v8.0053c0 1.658-1.3431 3.002-3 3.002h-18c-1.65685 0-3-1.344-3-3.002v-8.0053c0-1.6579 1.34315-3.00196 3-3.00196zm-17 2.00136h16c0 .2628.0517.523.1522.7658.1006.2428.2479.4635.4336.6493s.4062.3333.6488.4338c.2427.1006.5028.1524.7654.1524v6.004c-.2626 0-.5227.0517-.7654.1523-.2426.1006-.4631.248-.6488.4338-.1857.1859-.333.4065-.4336.6493-.1005.2428-.1522.5031-.1522.7659h-16c0-.2628-.05173-.5231-.15224-.7659s-.24783-.4634-.43355-.6493c-.18571-.1858-.40619-.3332-.64884-.4338s-.50273-.1523-.76537-.1523v-6.004c.26264 0 .52272-.0518.76537-.1524.24265-.1005.46313-.248.64884-.4338.18572-.1858.33304-.4065.43355-.6493s.15224-.503.15224-.7658z" fill-rule="evenodd"/></g></svg>